<?xml version="1.0" standalone="no"?>
<!DOCTYPE svg PUBLIC "-//W3C//DTD SVG 20010904//EN"
 "http://www.w3.org/TR/2001/REC-SVG-20010904/DTD/svg10.dtd">
<svg version="1.0" xmlns="http://www.w3.org/2000/svg"
 width="700.000000pt" height="700.000000pt" viewBox="0 0 700.000000 700.000000"
 preserveAspectRatio="xMidYMid meet">
<metadata>
Created by potrace 1.14, written by Peter Selinger 2001-2017
</metadata>
<g transform="translate(0.000000,700.000000) scale(0.100000,-0.100000)"
fill="#000000" stroke="none">
<path d="M2272 3991 c-75 -26 -122 -68 -160 -142 -30 -59 -33 -73 -33 -149 1
-107 21 -175 70 -237 49 -61 61 -72 147 -121 76 -44 130 -97 140 -138 19 -75
-18 -156 -76 -169 -66 -14 -258 56 -330 121 l-37 34 -46 -79 c-78 -134 -137
-163 -202 -98 -18 18 -38 51 -44 73 -13 51 -13 572 0 642 13 67 61 122 108
122 38 0 107 -59 146 -127 15 -24 28 -43 30 -41 2 2 5 46 6 98 l2 95 -38 43
c-50 57 -101 82 -170 82 -194 0 -325 -229 -325 -570 0 -319 115 -542 292 -566
79 -11 134 11 202 79 l59 60 -6 81 -6 81 41 -84 c74 -148 166 -216 293 -216
119 1 207 63 264 185 20 44 25 70 25 131 -1 135 -59 217 -209 292 -110 55
-151 153 -106 254 26 57 47 66 151 61 78 -3 92 -6 116 -28 15 -14 25 -19 22
-10 -3 8 -13 41 -22 72 -12 41 -28 69 -60 101 -78 77 -155 99 -244 68z"/>
<path d="M2905 3976 c-103 -47 -191 -171 -232 -326 -27 -101 -24 -330 5 -435
33 -115 85 -206 153 -269 116 -108 238 -114 341 -18 65 61 78 88 78 164 -1 58
-2 61 -15 43 -92 -125 -144 -163 -206 -151 -117 21 -167 188 -156 511 9 238
42 336 129 375 74 33 126 1 233 -145 13 -18 14 -13 15 58 l0 78 -46 49 c-25
27 -65 58 -88 70 -59 28 -146 27 -211 -4z"/>
<path d="M3674 3976 c-23 -14 -59 -49 -81 -78 -39 -50 -41 -58 -48 -145 -3
-51 -4 -93 -2 -93 3 0 17 20 31 44 64 109 149 138 212 71 41 -43 59 -121 51
-220 -10 -130 -63 -240 -217 -447 -84 -112 -83 -110 -64 -205 l4 -23 235 0
235 0 0 106 c0 97 -2 106 -17 99 -34 -13 -215 -75 -219 -75 -20 0 44 207 125
408 88 215 105 357 57 456 -40 82 -98 120 -191 124 -60 2 -76 -1 -111 -22z"/>
<path d="M4674 3976 c-3 -7 -4 -35 -2 -62 l3 -49 95 -58 c52 -32 100 -61 106
-65 9 -5 1 -102 -27 -362 -21 -195 -42 -390 -47 -434 l-8 -79 100 7 c55 4 101
8 103 9 1 1 12 223 24 492 12 270 23 492 25 494 2 2 44 -22 94 -53 l90 -56 0
108 0 109 -172 6 c-280 11 -378 9 -384 -7z"/>
<path d="M756 3958 c-3 -13 -26 -243 -51 -513 -25 -269 -48 -510 -52 -534 l-6
-43 44 5 c24 3 70 6 102 6 l57 1 0 260 c0 143 2 260 5 260 10 0 289 -61 292
-64 3 -3 53 -420 53 -443 0 -9 16 -13 48 -13 l48 0 38 468 c21 257 41 504 45
550 l7 82 -93 0 -93 0 -2 -228 -3 -228 -137 30 c-75 17 -140 35 -144 39 -5 4
-20 92 -34 195 l-25 187 -47 3 c-43 3 -48 1 -52 -20z"/>
<path d="M4190 3973 c0 -61 -31 -634 -35 -650 -3 -13 -3 -23 0 -23 3 0 29 37
59 83 59 92 92 116 139 98 52 -20 62 -58 62 -246 0 -153 -2 -173 -21 -205 -51
-88 -116 -71 -197 51 -28 44 -54 79 -57 79 -5 0 -30 -125 -30 -150 0 -19 84
-101 123 -121 58 -30 128 -35 184 -14 67 26 135 93 169 168 27 58 29 70 29
192 0 119 -2 135 -26 185 -36 76 -75 119 -134 146 -58 28 -114 30 -156 8 -17
-8 -33 -14 -35 -11 -8 8 99 297 110 297 7 0 54 -13 105 -29 l94 -30 -7 67 c-3
37 -6 77 -6 90 l0 22 -185 0 c-102 0 -185 -3 -185 -7z"/>
<path d="M5356 3918 c-8 -83 -56 -941 -56 -995 l0 -43 75 0 75 0 0 261 c0 205
3 260 13 257 6 -3 68 -20 135 -38 99 -27 125 -38 131 -54 4 -12 23 -112 41
-223 l33 -203 48 0 c49 0 49 0 49 33 0 58 49 960 55 1015 l6 52 -80 0 -81 0
-2 -228 -3 -229 -154 43 c-84 24 -155 44 -156 46 -1 2 -9 84 -16 183 l-14 180
-47 3 -46 3 -6 -63z"/>
<path d="M823 2661 c-84 -26 -155 -49 -158 -52 -3 -4 10 -51 28 -105 292 -853
958 -1519 1811 -1811 55 -18 102 -30 106 -26 12 14 101 324 95 333 -3 5 -19
11 -36 15 -62 14 -287 108 -405 169 -222 116 -409 252 -598 436 -289 281 -505
620 -631 990 -19 54 -39 96 -46 97 -8 0 -82 -20 -166 -46z"/>
<path d="M3378 1290 c-155 -24 -315 -147 -383 -294 -95 -204 -56 -427 102
-585 106 -106 220 -154 363 -154 293 -1 524 227 524 518 0 321 -287 564 -606
515z m163 -373 c49 -26 89 -89 89 -142 0 -54 -40 -117 -90 -142 -24 -13 -58
-23 -75 -23 -17 0 -51 10 -75 23 -116 58 -118 220 -5 284 51 29 100 29 156 0z"/>
</g>
</svg>
